# This file uses centimeters as units for non-parametric coordinates.

mtllib sock.mtl
g default
v -0.483742 -0.375000 0.288119
v 0.483742 -0.375000 0.288119
v -0.541791 0.493514 0.293399
v 0.541791 0.493514 0.293399
v -0.483742 0.489866 -0.375000
v 0.483742 0.489866 -0.375000
v -0.358328 -0.277778 -0.277778
v 0.358328 -0.277778 -0.277778
v -0.436648 1.396559 0.338492
v 0.436648 1.396559 0.338492
v 0.436648 1.396559 -0.338492
v -0.436648 1.396559 -0.338492
v -0.585224 -0.375000 1.471469
v 0.585224 -0.375000 1.471469
v 0.585224 0.375000 1.471469
v -0.585224 0.375000 1.471469
v -0.433499 -0.277778 2.130786
v 0.433499 -0.277778 2.092124
v 0.433499 0.277778 2.348224
v -0.433499 0.277778 2.207294
v 0.436648 0.981827 -0.338492
v 0.582198 1.396559 0.000000
v -0.436648 0.981827 -0.338492
v 0.000000 1.396559 -0.451323
v -0.582198 1.396559 0.000000
v 0.483742 -0.375000 0.765467
v 0.000000 -0.500000 1.471469
v -0.483742 -0.375000 0.765467
v 0.483742 0.375000 0.765467
v 0.780299 0.000000 1.471469
v -0.483742 0.375000 0.765467
v 0.000000 0.500000 1.471469
v -0.780299 0.000000 1.471469
v 0.585224 -0.375000 1.871334
v -0.585224 -0.375000 1.871334
v 0.585224 0.375000 1.871334
v -0.585224 0.375000 1.871334
v 0.000000 -0.375000 2.182932
v 0.498709 0.000000 2.400369
v 0.000000 0.375000 2.435837
v -0.585224 0.000000 2.189470
v 0.000000 0.489866 -0.500000
v 0.483742 0.000000 -0.375000
v 0.000000 -0.375000 -0.375000
v -0.483742 0.000000 -0.375000
v 0.483742 -0.375000 0.000000
v 0.000000 -0.500000 0.288119
v -0.483742 -0.375000 0.000000
v 0.644990 0.489866 0.000000
v 0.644990 0.000000 0.288119
v -0.644990 0.000000 0.288119
v -0.644990 0.489866 0.000000
v 0.000000 0.614866 0.440478
v 0.436648 0.981827 0.338492
v 0.000000 1.396559 0.451323
v -0.436648 0.981827 0.338492
v 0.000000 0.000000 2.513928
v 0.000000 0.000000 -0.500000
v 0.000000 -0.500000 0.000000
v 0.644990 0.000000 0.000000
v -0.644990 0.000000 0.000000
v 0.000000 0.981827 0.451323
v 0.582198 0.981827 0.000000
v 0.000000 0.981827 -0.451323
v -0.582198 0.981827 0.000000
v 0.000000 -0.500000 0.765467
v 0.644990 0.000000 0.765467
v 0.000000 0.500000 0.765467
v -0.644990 0.000000 0.765467
v 0.000000 -0.500000 1.871334
v 0.780299 0.000000 1.871334
v 0.000000 0.500000 1.871334
v -0.780299 0.000000 1.871334
vt 0.375000 1.000000
vt 0.375000 0.000000
vt 0.625000 1.000000
vt 0.625000 0.000000
vt 0.375000 0.250000
vt 0.625000 0.250000
vt 0.375000 0.500000
vt 0.125000 0.250000
vt 0.625000 0.500000
vt 0.875000 0.250000
vt 0.375000 0.750000
vt 0.125000 0.000000
vt 0.625000 0.750000
vt 0.875000 0.000000
vt 0.375000 0.250000
vt 0.625000 0.250000
vt 0.625000 0.500000
vt 0.375000 0.500000
vt 0.406250 0.031250
vt 0.593750 0.031250
vt 0.593750 0.218750
vt 0.406250 0.218750
vt 0.430556 0.055556
vt 0.569444 0.055556
vt 0.569444 0.194444
vt 0.430556 0.194444
vt 0.500000 0.125000
vt 0.500000 0.625000
vt 0.500000 0.875000
vt 0.750000 0.125000
vt 0.250000 0.125000
vt 0.500000 0.250000
vt 0.625000 0.375000
vt 0.500000 0.500000
vt 0.375000 0.375000
vt 0.500000 0.000000
vt 0.625000 0.125000
vt 0.500000 0.250000
vt 0.375000 0.125000
vt 0.500000 0.000000
vt 0.625000 0.125000
vt 0.500000 0.250000
vt 0.375000 0.125000
vt 0.500000 0.031250
vt 0.593750 0.125000
vt 0.500000 0.218750
vt 0.406250 0.125000
vt 0.500000 0.531250
vt 0.625000 0.625000
vt 0.875000 0.125000
vt 0.500000 0.750000
vt 0.375000 0.625000
vt 0.125000 0.125000
vt 0.625000 0.875000
vt 0.750000 0.000000
vt 0.500000 1.000000
vt 0.500000 0.000000
vt 0.375000 0.875000
vt 0.250000 0.000000
vt 0.750000 0.250000
vt 0.625000 0.375000
vt 0.656250 0.125000
vt 0.343750 0.125000
vt 0.250000 0.250000
vt 0.375000 0.375000
vt 0.500000 0.250000
vt 0.593750 0.281250
vt 0.500000 0.250000
vt 0.406250 0.281250
vt 0.593750 0.468750
vt 0.625000 0.375000
vt 0.406250 0.468750
vt 0.500000 0.500000
vt 0.375000 0.375000
vt 0.593750 0.031250
vt 0.500000 0.000000
vt 0.406250 0.031250
vt 0.593750 0.218750
vt 0.625000 0.125000
vt 0.406250 0.218750
vt 0.500000 0.250000
vt 0.375000 0.125000
vt 0.593750 0.031250
vt 0.406250 0.031250
vt 0.593750 0.218750
vt 0.406250 0.218750
vn -0.412365 -0.659555 0.628444
vn -0.030633 -0.773914 0.632550
vn -0.104825 -0.266919 0.958001
vn -0.645521 -0.116794 0.754759
vn 0.424537 -0.711574 0.559848
vn 0.576289 -0.209404 0.789963
vn 0.481045 0.687084 0.544529
vn -0.069608 0.756380 0.650419
vn -0.493555 0.649218 0.578722
vn -0.611700 0.056338 -0.789081
vn 0.000000 0.047794 -0.998857
vn -0.000000 -0.137398 -0.990516
vn -0.605495 -0.152634 -0.781076
vn 0.611700 0.056338 -0.789081
vn 0.605495 -0.152634 -0.781076
vn 0.480675 -0.620061 -0.620061
vn -0.000000 -0.707107 -0.707107
vn -0.480675 -0.620061 -0.620061
vn 0.000000 -0.982467 -0.186437
vn -0.599370 -0.773175 -0.207257
vn 0.599370 -0.773175 -0.207257
vn 0.612673 -0.790336 0.000000
vn 0.000000 -1.000000 0.000000
vn -0.612673 -0.790336 0.000000
vn 0.970418 -0.149354 -0.189688
vn 0.994814 -0.072268 0.071571
vn 0.990397 0.091438 -0.103699
vn 0.821985 0.359832 0.441431
vn -0.970418 -0.149354 -0.189688
vn -0.994814 -0.072268 0.071571
vn -0.821985 0.359832 0.441431
vn -0.990397 0.091438 -0.103699
vn 0.000000 0.576596 0.817029
vn 0.000000 -0.017646 0.999844
vn -0.593170 0.021334 0.804795
vn 0.593170 0.021334 0.804795
vn 0.612673 0.000000 0.790336
vn 0.000000 0.000000 1.000000
vn -0.612673 0.000000 0.790336
vn 0.996822 0.075920 -0.024128
vn 0.611343 0.065874 -0.788619
vn 0.612673 0.000000 -0.790336
vn 1.000000 0.000000 0.000000
vn 0.000000 0.055367 -0.998466
vn -0.611343 0.065874 -0.788619
vn -0.612673 0.000000 -0.790336
vn 0.000000 0.000000 -1.000000
vn -0.996822 0.075920 -0.024128
vn -1.000000 0.000000 0.000000
vn 0.000000 -0.999946 -0.010427
vn -0.578164 -0.814446 -0.049029
vn 0.578164 -0.814446 -0.049029
vn 0.571939 -0.818572 -0.053156
vn 0.000000 -0.999946 -0.010374
vn -0.571939 -0.818572 -0.053156
vn 0.996986 -0.015301 -0.076059
vn 0.626649 0.778481 0.035749
vn 0.571939 0.818572 -0.053156
vn 0.994463 0.000000 -0.105090
vn 0.000000 0.994697 0.102846
vn -0.626649 0.778481 0.035749
vn -0.571939 0.818572 -0.053156
vn 0.000000 0.999946 -0.010374
vn -0.996986 -0.015301 -0.076059
vn -0.994463 0.000000 -0.105090
vn -0.000000 -0.986215 0.165466
vn -0.535983 -0.822199 0.191603
vn 0.547313 -0.812910 0.199063
vn 0.969180 -0.017667 0.245720
vn 0.547377 0.818523 0.174350
vn 0.000000 0.991102 0.133105
vn -0.530721 0.829610 0.173440
vn -0.971624 0.000000 0.236531
s 1
g pCube1
usemtl initialShadingGroup
f 17/23/1 38/44/2 57/27/3 41/47/4
f 38/44/2 18/24/5 39/45/6 57/27/3
f 57/27/3 39/45/6 19/25/7 40/46/8
f 41/47/4 57/27/3 40/46/8 20/26/9
f 5/7/10 42/48/11 58/28/12 45/52/13
f 42/48/11 6/9/14 43/49/15 58/28/12
f 58/28/12 43/49/15 8/13/16 44/51/17
f 45/52/13 58/28/12 44/51/17 7/11/18
f 7/11/18 44/51/17 59/29/19 48/58/20
f 44/51/17 8/13/16 46/54/21 59/29/19
f 59/29/19 46/54/21 2/3/22 47/56/23
f 48/58/20 59/29/19 47/56/23 1/1/24
f 2/4/22 46/55/21 60/30/25 50/62/26
f 46/55/21 8/14/16 43/50/15 60/30/25
f 60/30/25 43/50/15 6/10/14 49/60/27
f 50/62/26 60/30/25 49/60/27 4/6/28
f 7/12/18 48/59/20 61/31/29 45/53/13
f 48/59/20 1/2/24 51/63/30 61/31/29
f 61/31/29 51/63/30 3/5/31 52/64/32
f 45/53/13 61/31/29 52/64/32 5/8/10
f 3/5/31 53/66/33 62/32/34 56/69/35
f 53/66/33 4/6/28 54/67/36 62/32/34
f 62/32/34 54/67/36 10/16/37 55/68/38
f 56/69/35 62/32/34 55/68/38 9/15/39
f 4/6/28 49/61/27 63/33/40 54/67/36
f 49/61/27 6/9/14 21/70/41 63/33/40
f 63/33/40 21/70/41 11/17/42 22/71/43
f 54/67/36 63/33/40 22/71/43 10/16/37
f 6/9/14 42/48/11 64/34/44 21/70/41
f 42/48/11 5/7/10 23/72/45 64/34/44
f 64/34/44 23/72/45 12/18/46 24/73/47
f 21/70/41 64/34/44 24/73/47 11/17/42
f 5/7/10 52/65/32 65/35/48 23/72/45
f 52/65/32 3/5/31 56/69/35 65/35/48
f 65/35/48 56/69/35 9/15/39 25/74/49
f 23/72/45 65/35/48 25/74/49 12/18/46
f 1/2/24 47/57/23 66/36/50 28/77/51
f 47/57/23 2/4/22 26/75/52 66/36/50
f 66/36/50 26/75/52 14/20/53 27/76/54
f 28/77/51 66/36/50 27/76/54 13/19/55
f 2/4/22 50/62/26 67/37/56 26/75/52
f 50/62/26 4/6/28 29/78/57 67/37/56
f 67/37/56 29/78/57 15/21/58 30/79/59
f 26/75/52 67/37/56 30/79/59 14/20/53
f 4/6/28 53/66/33 68/38/60 29/78/57
f 53/66/33 3/5/31 31/80/61 68/38/60
f 68/38/60 31/80/61 16/22/62 32/81/63
f 29/78/57 68/38/60 32/81/63 15/21/58
f 3/5/31 51/63/30 69/39/64 31/80/61
f 51/63/30 1/2/24 28/77/51 69/39/64
f 69/39/64 28/77/51 13/19/55 33/82/65
f 31/80/61 69/39/64 33/82/65 16/22/62
f 13/19/55 27/76/54 70/40/66 35/84/67
f 27/76/54 14/20/53 34/83/68 70/40/66
f 70/40/66 34/83/68 18/24/5 38/44/2
f 35/84/67 70/40/66 38/44/2 17/23/1
f 14/20/53 30/79/59 71/41/69 34/83/68
f 30/79/59 15/21/58 36/85/70 71/41/69
f 71/41/69 36/85/70 19/25/7 39/45/6
f 34/83/68 71/41/69 39/45/6 18/24/5
f 15/21/58 32/81/63 72/42/71 36/85/70
f 32/81/63 16/22/62 37/86/72 72/42/71
f 72/42/71 37/86/72 20/26/9 40/46/8
f 36/85/70 72/42/71 40/46/8 19/25/7
f 16/22/62 33/82/65 73/43/73 37/86/72
f 33/82/65 13/19/55 35/84/67 73/43/73
f 73/43/73 35/84/67 17/23/1 41/47/4
f 37/86/72 73/43/73 41/47/4 20/26/9
