# This file uses centimeters as units for non-parametric coordinates.

mtllib A.mtl
g default
v 0.927819 -0.158121 -0.732593
v 0.083331 -0.158121 -0.732593
v 0.083331 -0.204543 -0.732593
v 0.083331 -0.217343 -0.682298
v 0.503765 -0.191214 -0.674729
v 0.503765 -0.226886 -0.656553
v 0.503765 -0.266171 -0.680630
v 0.503765 -0.270433 -0.707543
v 0.745511 -0.153252 -0.674729
v 0.745511 -0.188924 -0.656553
v 0.745511 -0.228209 -0.680630
v 0.745511 -0.232471 -0.707543
v 0.254125 -0.153252 -0.674729
v 0.254125 -0.188924 -0.656553
v 0.254125 -0.228209 -0.680630
v 0.254125 -0.232471 -0.707543
v 0.083331 -0.181332 -0.661157
v 0.083331 -0.141843 -0.700646
v 0.083331 -0.143776 -0.712849
v 0.503765 -0.184951 -0.714272
v 0.254125 -0.146989 -0.714272
v 0.375139 -0.176029 -0.674729
v 0.375139 -0.211701 -0.656553
v 0.375139 -0.250986 -0.680630
v 0.375139 -0.255248 -0.707543
v 0.503765 -0.200969 -0.736318
v 0.254125 -0.163007 -0.736318
v 0.628331 -0.176029 -0.674729
v 0.628331 -0.211701 -0.656553
v 0.628331 -0.250986 -0.680630
v 0.628331 -0.255248 -0.707543
v 0.152396 -0.145660 -0.674729
v 0.152396 -0.181332 -0.656553
v 0.152396 -0.220616 -0.680630
v 0.152396 -0.224879 -0.707543
v 0.745511 -0.146989 -0.714272
v 0.745511 -0.163007 -0.736318
v 0.927819 -0.221250 -0.706969
v 0.851982 -0.224879 -0.707543
v 0.927819 -0.217343 -0.682298
v 0.851982 -0.220616 -0.680630
v 0.927819 -0.181332 -0.661157
v 0.851982 -0.181332 -0.656553
v 0.851982 -0.137239 -0.700646
v 0.927819 -0.143776 -0.712849
v 0.927819 -0.204543 -0.732593
v 0.927819 -0.141843 -0.700646
v 0.083331 -0.221250 -0.706969
v 0.851982 -0.139397 -0.714272
v 0.851982 -0.155415 -0.736318
v 0.375139 -0.169766 -0.714272
v 0.375139 -0.185784 -0.736318
v 0.628331 -0.169766 -0.714272
v 0.628331 -0.185784 -0.736318
v 0.152396 -0.139397 -0.714272
v 0.152396 -0.155415 -0.736318
v 0.930616 -0.221250 -0.260575
v 0.087976 -0.158121 -0.286199
v 0.087976 -0.193535 -0.291808
v 0.087976 -0.221250 -0.260575
v 0.087976 -0.217343 -0.235904
v 0.930616 -0.217343 -0.235904
v 0.514882 -0.186603 -0.228335
v 0.514882 -0.261559 -0.234236
v 0.282609 -0.152484 -0.228335
v 0.282609 -0.227440 -0.234236
v 0.762905 -0.152484 -0.228335
v 0.762905 -0.227440 -0.234236
v 0.087976 -0.181332 -0.214763
v 0.087976 -0.149385 -0.231041
v 0.087976 -0.141843 -0.254252
v 0.514882 -0.178182 -0.254252
v 0.282609 -0.144063 -0.254252
v 0.396170 -0.172955 -0.228335
v 0.396170 -0.247912 -0.234236
v 0.514882 -0.265822 -0.261149
v 0.282609 -0.231703 -0.261149
v 0.514882 -0.235901 -0.296187
v 0.282609 -0.201781 -0.296187
v 0.514882 -0.180340 -0.267878
v 0.282609 -0.162238 -0.289924
v 0.170977 -0.145660 -0.228335
v 0.170977 -0.220616 -0.234236
v 0.641969 -0.172955 -0.228335
v 0.641969 -0.247912 -0.234236
v 0.762905 -0.146221 -0.267878
v 0.762905 -0.201781 -0.296187
v 0.762905 -0.231703 -0.261149
v 0.863170 -0.220616 -0.234236
v 0.930616 -0.149385 -0.231041
v 0.863170 -0.145660 -0.228335
v 0.930616 -0.141843 -0.254252
v 0.762905 -0.144063 -0.254252
v 0.930616 -0.158121 -0.286199
v 0.930616 -0.193535 -0.291808
v 0.930616 -0.193535 -0.216696
v 0.863170 -0.155415 -0.289924
v 0.863170 -0.194957 -0.296187
v 0.863170 -0.224879 -0.261149
v 0.863170 -0.137239 -0.254252
v 0.396170 -0.164534 -0.254252
v 0.396170 -0.252174 -0.261149
v 0.396170 -0.222253 -0.296187
v 0.396170 -0.166692 -0.267878
v 0.170977 -0.137239 -0.254252
v 0.170977 -0.224879 -0.261149
v 0.170977 -0.194957 -0.296187
v 0.170977 -0.155415 -0.289924
v 0.641969 -0.164534 -0.254252
v 0.641969 -0.252174 -0.261149
v 0.641969 -0.222253 -0.296187
v 0.641969 -0.166692 -0.267878
v 0.483492 -0.144253 -0.079507
v 0.506703 -0.136711 -0.079507
v 0.542714 -0.194548 -0.079507
v 0.483492 -0.144497 -0.916663
v 0.506703 -0.136956 -0.916663
v 0.542714 -0.194793 -0.916663
v 0.525052 -0.212455 -0.916663
v 0.494501 -0.214000 -0.916663
v 0.493078 -0.194658 -0.261814
v 0.493078 -0.196125 -0.709213
v 0.526720 -0.223693 -0.496229
v 0.526720 -0.193474 -0.709213
v 0.545988 -0.204425 -0.496229
v 0.545988 -0.174206 -0.709213
v 0.506703 -0.140315 -0.496229
v 0.506703 -0.110096 -0.709213
v 0.480786 -0.148736 -0.496229
v 0.480786 -0.118517 -0.709213
v 0.464768 -0.198034 -0.496229
v 0.464768 -0.167815 -0.709213
v 0.493078 -0.226344 -0.496229
v 0.493078 -0.203717 -0.825604
v 0.493078 -0.202739 -0.155344
v 0.469147 -0.188403 -0.079507
v 0.464768 -0.166349 -0.261814
v 0.480786 -0.117051 -0.261814
v 0.506703 -0.108630 -0.261814
v 0.545988 -0.172740 -0.261814
v 0.526720 -0.192007 -0.261814
v 0.491612 -0.160560 -0.054228
v 0.525052 -0.212211 -0.079507
v 0.494501 -0.213756 -0.079507
v 0.469147 -0.188647 -0.916663
v 0.464768 -0.174430 -0.155344
v 0.480786 -0.125132 -0.155344
v 0.506703 -0.116711 -0.155344
v 0.545988 -0.180821 -0.155344
v 0.526720 -0.200089 -0.155344
v 0.482284 -0.173398 -0.054228
v 0.527487 -0.202116 -0.947016
v 0.526720 -0.201066 -0.825604
v 0.545988 -0.181798 -0.825604
v 0.506703 -0.117689 -0.825604
v 0.480786 -0.126110 -0.825604
v 0.464768 -0.175407 -0.825604
vt 0.375000 0.312500
vt 0.400000 0.312500
vt 0.591842 0.029841
vt 0.450000 0.312500
vt 0.375000 0.688440
vt 0.591841 0.970159
vt 0.400000 0.688440
vt 0.408159 0.970159
vt 0.450000 0.688440
vt 0.362494 0.773687
vt 0.506250 0.688440
vt 0.625000 0.500852
vt 0.587500 0.501707
vt 0.550000 0.501707
vt 0.506250 0.501707
vt 0.481250 0.501707
vt 0.625000 0.397657
vt 0.587500 0.399912
vt 0.550000 0.399912
vt 0.506250 0.399912
vt 0.481250 0.399912
vt 0.625000 0.610887
vt 0.587500 0.606827
vt 0.550000 0.606827
vt 0.506250 0.606827
vt 0.481250 0.606827
vt 0.375000 0.355078
vt 0.400000 0.355078
vt 0.375000 0.555870
vt 0.400000 0.555870
vt 0.375000 0.449255
vt 0.400000 0.449255
vt 0.375000 0.649664
vt 0.400000 0.649664
vt 0.375000 0.397657
vt 0.625000 0.355078
vt 0.400000 0.399912
vt 0.481250 0.312500
vt 0.347574 0.132108
vt 0.481250 0.355078
vt 0.506250 0.312500
vt 0.362494 0.226313
vt 0.506250 0.355078
vt 0.550000 0.312500
vt 0.500000 0.312500
vt 0.550000 0.355078
vt 0.612500 0.312500
vt 0.612500 0.355078
vt 0.625000 0.312500
vt 0.648603 0.107966
vt 0.408159 0.029841
vt 0.656250 0.156250
vt 0.347574 0.867892
vt 0.481250 0.688440
vt 0.500000 0.687500
vt 0.550000 0.688440
vt 0.656250 0.843750
vt 0.612500 0.688440
vt 0.648603 0.892034
vt 0.625000 0.688440
vt 0.375000 0.500852
vt 0.375000 0.610887
vt 0.625000 0.555870
vt 0.587500 0.555870
vt 0.550000 0.555870
vt 0.506250 0.555870
vt 0.481250 0.555870
vt 0.400000 0.501707
vt 0.400000 0.606827
vt 0.625000 0.449255
vt 0.587500 0.449255
vt 0.550000 0.449255
vt 0.506250 0.449255
vt 0.481250 0.449255
vt 0.625000 0.649664
vt 0.587500 0.649664
vt 0.550000 0.649664
vt 0.506250 0.649664
vt 0.481250 0.649664
vt 0.400000 0.312500
vt 0.400000 0.350367
vt 0.437500 0.312500
vt 0.375000 0.388235
vt 0.437500 0.350367
vt 0.481250 0.312500
vt 0.437500 0.392497
vt 0.481250 0.350367
vt 0.506250 0.312500
vt 0.481250 0.392497
vt 0.537500 0.312500
vt 0.506250 0.350367
vt 0.506250 0.392497
vt 0.587500 0.312500
vt 0.587500 0.350367
vt 0.587500 0.392497
vt 0.612500 0.312500
vt 0.612500 0.350367
vt 0.625000 0.312500
vt 0.625000 0.350367
vt 0.625000 0.388235
vt 0.612500 0.392497
vt 0.591842 0.029841
vt 0.362494 0.226313
vt 0.451716 0.007647
vt 0.347574 0.132108
vt 0.451716 0.304853
vt 0.626409 0.248091
vt 0.656250 0.156250
vt 0.591841 0.970159
vt 0.451716 0.992353
vt 0.347574 0.867892
vt 0.362494 0.773687
vt 0.500000 0.687500
vt 0.626409 0.751908
vt 0.656250 0.843750
vt 0.612500 0.496487
vt 0.612500 0.546655
vt 0.625000 0.498071
vt 0.625000 0.546655
vt 0.625000 0.595239
vt 0.612500 0.594743
vt 0.587500 0.496487
vt 0.587500 0.546655
vt 0.587500 0.594743
vt 0.506250 0.496487
vt 0.506250 0.546655
vt 0.506250 0.594743
vt 0.481250 0.496487
vt 0.481250 0.546655
vt 0.481250 0.594743
vt 0.437500 0.496487
vt 0.437500 0.546655
vt 0.437500 0.594743
vt 0.375000 0.498071
vt 0.375000 0.546655
vt 0.400000 0.594743
vt 0.400000 0.688440
vt 0.612500 0.641839
vt 0.625000 0.641839
vt 0.625000 0.688440
vt 0.587500 0.641839
vt 0.612500 0.688440
vt 0.587500 0.688440
vt 0.506250 0.641839
vt 0.550000 0.688440
vt 0.506250 0.688440
vt 0.481250 0.641839
vt 0.481250 0.688440
vt 0.437500 0.641839
vt 0.437500 0.688440
vt 0.400000 0.641839
vt 0.612500 0.443153
vt 0.625000 0.443153
vt 0.587500 0.443153
vt 0.506250 0.443153
vt 0.481250 0.443153
vt 0.437500 0.443153
vt 0.375000 0.443153
vt 0.375000 0.312500
vt 0.375000 0.355078
vt 0.375000 0.397657
vt 0.412500 0.312500
vt 0.412500 0.355078
vt 0.462500 0.312500
vt 0.412500 0.399912
vt 0.462500 0.355078
vt 0.487500 0.312500
vt 0.462500 0.399912
vt 0.487500 0.355078
vt 0.568750 0.312500
vt 0.487500 0.399912
vt 0.568750 0.355078
vt 0.593750 0.312500
vt 0.568750 0.399912
vt 0.593750 0.355078
vt 0.625000 0.312500
vt 0.593750 0.399912
vt 0.625000 0.355078
vt 0.625000 0.397657
vt 0.548284 0.007647
vt 0.472228 0.068173
vt 0.373591 0.064409
vt 0.427293 0.100821
vt 0.343750 0.156250
vt 0.637506 0.226313
vt 0.570063 0.293756
vt 0.648603 0.107966
vt 0.548284 0.992353
vt 0.373591 0.935591
vt 0.572750 0.768916
vt 0.343750 0.843750
vt 0.570063 0.706244
vt 0.637506 0.773687
vt 0.648603 0.892034
vt 0.375000 0.610887
vt 0.625000 0.610887
vt 0.593750 0.501707
vt 0.593750 0.606827
vt 0.568750 0.501707
vt 0.568750 0.606827
vt 0.487500 0.501707
vt 0.487500 0.606827
vt 0.462500 0.501707
vt 0.462500 0.606827
vt 0.412500 0.501707
vt 0.412500 0.606827
vt 0.375000 0.500852
vt 0.625000 0.500852
vt 0.375000 0.649664
vt 0.375000 0.688440
vt 0.625000 0.649664
vt 0.625000 0.688440
vt 0.593750 0.649664
vt 0.593750 0.688440
vt 0.568750 0.649664
vt 0.568750 0.688440
vt 0.487500 0.649664
vt 0.487500 0.688440
vt 0.462500 0.649664
vt 0.462500 0.688440
vt 0.412500 0.649664
vt 0.412500 0.688440
vn 0.269930 0.857661 -0.437670
vn 0.044661 0.085777 -0.995313
vn -0.022884 -0.001058 -0.999738
vn -0.034508 0.941537 -0.335136
vn 0.005800 -0.060663 -0.998141
vn -0.143722 0.968644 -0.202664
vn 0.159949 -0.332217 -0.929542
vn 0.011158 -0.654566 -0.755923
vn 0.088737 -0.640400 -0.762898
vn 0.177386 -0.978122 -0.108684
vn 0.299613 -0.721623 0.624093
vn 0.052544 -0.754794 0.653854
vn 0.103143 -0.750608 0.652648
vn 0.320087 0.225006 0.920281
vn 0.046161 0.162804 0.985578
vn 0.021268 0.020496 0.999564
vn 0.350122 0.756245 0.552729
vn 0.003678 0.831357 0.555726
vn -0.084553 0.798894 0.595500
vn -0.131799 0.084849 -0.987638
vn -0.498118 -0.861800 -0.095804
vn -0.327822 0.909845 -0.254390
vn -0.050751 -0.332732 -0.941655
vn -0.181962 -0.743649 0.643332
vn -0.408543 0.077818 0.909416
vn -0.375707 0.793018 0.479548
vn -0.000043 0.986677 -0.162692
vn 0.000063 -0.107922 -0.994159
vn -0.014622 -0.086031 -0.996185
vn 0.149488 0.976342 -0.156233
vn -0.006041 -0.060561 -0.998146
vn 0.132124 0.979595 -0.151451
vn -0.000020 0.797274 0.603617
vn 0.122129 0.800046 0.587377
vn 0.109885 0.810807 0.574907
vn 0.000070 -0.114969 0.993369
vn -0.014964 -0.087556 0.996047
vn -0.005596 -0.057812 0.998312
vn -0.000037 -0.771300 0.636471
vn -0.114447 -0.758044 0.642083
vn -0.103440 -0.750553 0.652664
vn -0.000055 -0.662152 -0.749369
vn -0.097520 -0.649370 -0.754194
vn -0.088924 -0.640356 -0.762914
vn 0.015186 -0.086259 -0.996157
vn -0.154286 0.975607 -0.156163
vn -0.126056 0.799561 0.587207
vn 0.015551 -0.087833 0.996014
vn 0.118118 -0.757797 0.641710
vn 0.100646 -0.649261 -0.753877
vn 0.024368 -0.002046 -0.999701
vn 0.033138 0.980646 -0.192963
vn -0.015014 0.796615 0.604301
vn -0.054366 0.000231 0.998521
vn -0.056009 -0.754466 0.653945
vn -0.012717 -0.656266 -0.754423
vn 0.403564 0.537795 -0.740211
vn 0.312269 -0.361127 -0.878678
vn 0.000891 -0.267060 -0.963679
vn -0.026396 0.565428 -0.824375
vn -0.011090 -0.115591 -0.993235
vn -0.090334 0.611727 -0.785894
vn 0.186134 -0.905318 -0.381776
vn 0.060510 -0.920692 -0.385572
vn 0.114540 -0.916295 -0.383776
vn 0.464657 -0.806758 0.365014
vn -0.003197 -0.389434 0.921049
vn 0.045905 -0.371434 0.927324
vn 0.051502 -0.024522 0.998372
vn 0.134788 0.385672 0.912737
vn -0.038387 0.304079 0.951873
vn -0.031109 0.247024 0.968510
vn 0.433558 0.889858 -0.142058
vn 0.000952 0.996200 -0.087085
vn -0.106658 0.992681 0.056641
vn -0.401086 0.738449 0.542054
vn -0.257694 0.567934 -0.781693
vn -0.329687 -0.358785 -0.873258
vn -0.347890 -0.863978 -0.364026
vn -0.110622 -0.546008 0.830444
vn -0.042299 -0.128042 0.990866
vn -0.146480 0.976880 -0.155724
vn 0.000065 0.987512 0.157543
vn 0.000081 0.580014 -0.814606
vn 0.106143 0.600499 -0.792549
vn 0.141719 0.988607 0.050711
vn 0.087728 0.572255 -0.815370
vn 0.105958 0.989131 -0.101944
vn -0.000040 0.210423 0.977610
vn 0.032879 0.227126 0.973310
vn 0.030664 0.246746 0.968595
vn 0.000006 -0.404125 0.914704
vn -0.056846 -0.387403 0.920156
vn -0.045135 -0.371656 0.927272
vn 0.000110 -0.926780 -0.375603
vn -0.133388 -0.916362 -0.377476
vn -0.112865 -0.916502 -0.383778
vn -0.000151 -0.120318 -0.992735
vn -0.007804 -0.151113 -0.988486
vn -0.002630 -0.276541 -0.960999
vn -0.001309 0.594624 -0.804003
vn 0.012728 0.987778 -0.155344
vn 0.030350 0.260873 0.964896
vn 0.014182 -0.441525 0.897137
vn -0.052264 -0.921187 -0.385594
vn -0.034604 -0.371297 -0.927869
vn -0.081184 0.583894 -0.807761
vn -0.135290 0.978565 0.155266
vn -0.030867 0.227512 0.973286
vn 0.053205 -0.387152 0.920479
vn 0.125106 -0.917316 -0.377995
vn 0.013690 -0.088481 -0.995984
vn -0.369654 -0.929164 -0.003232
vn -0.956633 -0.256740 0.137613
vn -0.989261 -0.145929 0.008229
vn -0.385466 -0.917904 -0.094175
vn -0.992642 -0.120843 0.007625
vn -0.391320 -0.918018 0.064118
vn -0.703395 0.621453 0.345010
vn -0.800959 0.590957 0.096093
vn -0.795328 0.604743 -0.041695
vn 0.658673 0.690087 0.299883
vn 0.640891 0.759767 0.109605
vn 0.639767 0.766792 -0.052231
vn 0.955874 0.178604 0.233252
vn 0.969157 0.241393 0.049649
vn 0.964790 0.262329 -0.019053
vn 0.388910 -0.906801 0.162668
vn 0.381793 -0.919190 -0.096557
vn 0.391464 -0.917974 0.063881
vn -0.613103 -0.144703 0.776637
vn 0.128024 0.413410 0.901500
vn 0.240972 0.056595 -0.968880
vn -0.396494 -0.917570 -0.029287
vn -0.959792 -0.174992 -0.219495
vn -0.777362 0.539952 -0.322738
vn 0.620733 0.741535 -0.254591
vn 0.969422 0.208849 -0.128851
vn 0.357220 -0.932514 0.053018
vn 0.370871 -0.928679 0.003100
vn -0.370573 -0.928798 0.003145
vn -0.391177 -0.918100 -0.063815
vn 0.391320 -0.918061 -0.063495
vn 0.980725 0.195393 -0.000808
vn 0.964911 0.261876 0.019190
vn 0.658599 0.752490 -0.002335
vn 0.639944 0.766694 0.051503
vn -0.822647 0.568550 -0.001835
vn -0.795567 0.604458 0.041282
vn -0.979763 -0.200162 0.000523
vn -0.992575 -0.121416 -0.007338
vn -0.385726 -0.919359 0.077424
vn 0.381776 -0.920820 0.079603
vn 0.969789 0.240401 -0.041438
vn 0.642494 0.760607 -0.093161
vn -0.802568 0.590954 -0.081593
vn -0.989050 -0.147400 -0.007270
s 1
g pCylinder4
usemtl initialShadingGroup
f 45/1/1 1/2/2 50/28/3 49/27/4
f 49/27/4 50/28/3 37/37/5 36/35/6
f 1/2/2 46/4/7 39/40/8 50/28/3
f 50/28/3 39/40/8 12/21/9 37/37/5
f 46/4/7 38/38/10 39/40/8
f 38/38/10 40/41/11 41/43/12 39/40/8
f 39/40/8 41/43/12 11/20/13 12/21/9
f 40/41/11 42/44/14 43/46/15 41/43/12
f 41/43/12 43/46/15 10/19/16 11/20/13
f 42/44/14 47/47/17 44/48/18 43/46/15
f 43/46/15 44/48/18 9/18/19 10/19/16
f 47/47/17 45/49/1 49/36/4 44/48/18
f 44/48/18 49/36/4 36/17/6 9/18/19
f 1/3/2 45/50/1 46/51/7
f 38/39/10 46/51/7 40/42/11
f 40/42/11 46/51/7 42/45/14
f 46/51/7 47/52/17 42/45/14
f 46/51/7 45/50/1 47/52/17
f 2/6/20 48/53/21 19/59/22
f 3/8/23 48/53/21 2/6/20
f 4/10/24 17/55/25 48/53/21
f 48/53/21 17/55/25 18/57/26
f 48/53/21 18/57/26 19/59/22
f 20/61/27 26/68/28 52/30/29 51/29/30
f 51/29/30 52/30/29 27/69/31 21/62/32
f 5/13/33 20/12/27 51/63/30 22/64/34
f 22/64/34 51/63/30 21/22/32 13/23/35
f 6/14/36 5/13/33 22/64/34 23/65/37
f 23/65/37 22/64/34 13/23/35 14/24/38
f 7/15/39 6/14/36 23/65/37 24/66/40
f 24/66/40 23/65/37 14/24/38 15/25/41
f 8/16/42 7/15/39 24/66/40 25/67/43
f 25/67/43 24/66/40 15/25/41 16/26/44
f 26/68/28 8/16/42 25/67/43 52/30/29
f 52/30/29 25/67/43 16/26/44 27/69/31
f 36/35/6 37/37/5 54/32/45 53/31/46
f 53/31/46 54/32/45 26/68/28 20/61/27
f 9/18/19 36/17/6 53/70/46 28/71/47
f 28/71/47 53/70/46 20/12/27 5/13/33
f 10/19/16 9/18/19 28/71/47 29/72/48
f 29/72/48 28/71/47 5/13/33 6/14/36
f 11/20/13 10/19/16 29/72/48 30/73/49
f 30/73/49 29/72/48 6/14/36 7/15/39
f 12/21/9 11/20/13 30/73/49 31/74/50
f 31/74/50 30/73/49 7/15/39 8/16/42
f 37/37/5 12/21/9 31/74/50 54/32/45
f 54/32/45 31/74/50 8/16/42 26/68/28
f 21/62/32 27/69/31 56/34/51 55/33/52
f 55/33/52 56/34/51 2/7/20 19/5/22
f 13/23/35 21/22/32 55/75/52 32/76/53
f 32/76/53 55/75/52 19/60/22 18/58/26
f 14/24/38 13/23/35 32/76/53 33/77/54
f 33/77/54 32/76/53 18/58/26 17/56/25
f 15/25/41 14/24/38 33/77/54 34/78/55
f 34/78/55 33/77/54 17/56/25 4/11/24
f 16/26/44 15/25/41 34/78/55 35/79/56
f 35/79/56 34/78/55 4/11/24 48/54/21
f 35/79/56 48/54/21 3/9/23
f 27/69/31 16/26/44 35/79/56 56/34/51
f 56/34/51 35/79/56 3/9/23 2/7/20
s 5
f 94/80/57 95/82/58 98/84/59 97/81/60
f 97/81/60 98/84/59 87/86/61 86/83/62
f 95/82/58 57/85/63 99/87/64 98/84/59
f 98/84/59 99/87/64 88/89/65 87/86/61
f 57/85/63 62/88/66 89/91/67 99/87/64
f 99/87/64 89/91/67 68/92/68 88/89/65
f 62/88/66 96/90/69 89/91/67
f 96/90/69 90/93/70 91/94/71 89/91/67
f 89/91/67 91/94/71 67/95/72 68/92/68
f 90/93/70 92/96/73 100/97/74 91/94/71
f 91/94/71 100/97/74 93/101/75 67/95/72
f 92/96/73 94/98/57 97/99/60 100/97/74
f 100/97/74 97/99/60 86/100/62 93/101/75
f 62/103/66 95/104/58 94/102/57
f 57/105/63 95/104/58 62/103/66
f 96/106/69 62/103/66 90/107/70
f 90/107/70 62/103/66 92/108/73
f 62/103/66 94/102/57 92/108/73
f 70/114/76 58/109/77 59/110/78
f 60/111/79 70/114/76 59/110/78
f 61/112/80 70/114/76 60/111/79
f 61/112/80 69/113/81 70/114/76
f 70/114/76 71/115/82 58/109/77
f 72/116/83 80/118/84 104/119/85 101/117/86
f 101/117/86 104/119/85 81/120/87 73/121/88
f 63/122/89 72/116/83 101/117/86 74/123/90
f 74/123/90 101/117/86 73/121/88 65/124/91
f 64/125/92 63/122/89 74/123/90 75/126/93
f 75/126/93 74/123/90 65/124/91 66/127/94
f 76/128/95 64/125/92 75/126/93 102/129/96
f 102/129/96 75/126/93 66/127/94 77/130/97
f 78/131/98 76/128/95 102/129/96 103/132/99
f 103/132/99 102/129/96 77/130/97 79/133/100
f 80/134/84 78/131/98 103/132/99 104/135/85
f 104/135/85 103/132/99 79/133/100 81/136/87
f 73/121/88 81/120/87 108/139/101 105/138/102
f 105/138/102 108/139/101 58/140/77 71/142/82
f 65/124/91 73/121/88 105/138/102 82/141/103
f 82/141/103 105/138/102 71/142/82 70/143/76
f 82/141/103 70/143/76 69/145/81
f 66/127/94 65/124/91 82/141/103 83/144/104
f 83/144/104 82/141/103 69/145/81 61/146/80
f 77/130/97 66/127/94 83/144/104 106/147/105
f 106/147/105 83/144/104 61/146/80 60/148/79
f 79/133/100 77/130/97 106/147/105 107/149/106
f 107/149/106 106/147/105 60/148/79 59/150/78
f 81/136/87 79/133/100 107/149/106 108/151/101
f 108/151/101 107/149/106 59/150/78 58/137/77
f 93/101/75 86/100/62 112/153/107 109/152/108
f 109/152/108 112/153/107 80/118/84 72/116/83
f 67/95/72 93/101/75 109/152/108 84/154/109
f 84/154/109 109/152/108 72/116/83 63/122/89
f 68/92/68 67/95/72 84/154/109 85/155/110
f 85/155/110 84/154/109 63/122/89 64/125/92
f 88/89/65 68/92/68 85/155/110 110/156/111
f 110/156/111 85/155/110 64/125/92 76/128/95
f 87/86/61 88/89/65 110/156/111 111/157/112
f 111/157/112 110/156/111 76/128/95 78/131/98
f 86/83/62 87/86/61 111/157/112 112/158/107
f 112/158/107 111/157/112 78/131/98 80/134/84
s 8
f 144/159/113 136/162/114 146/163/115 135/160/116
f 135/160/116 146/163/115 137/165/117 121/161/118
f 136/162/114 113/164/119 147/166/120 146/163/115
f 146/163/115 147/166/120 138/168/121 137/165/117
f 113/164/119 114/167/122 148/169/123 147/166/120
f 147/166/120 148/169/123 139/171/124 138/168/121
f 114/167/122 115/170/125 149/172/126 148/169/123
f 148/169/123 149/172/126 140/174/127 139/171/124
f 115/170/125 143/173/128 150/175/129 149/172/126
f 149/172/126 150/175/129 141/177/130 140/174/127
f 143/173/128 144/176/113 135/178/116 150/175/129
f 150/175/129 135/178/116 121/179/118 141/177/130
f 143/185/128 136/180/114 144/187/113
f 136/180/114 143/185/128 151/181/131
f 113/182/119 136/180/114 151/181/131 142/183/132
f 143/185/128 142/183/132 151/181/131
f 114/184/122 113/182/119 142/183/132 143/185/128
f 115/186/125 114/184/122 143/185/128
f 152/190/133 120/194/134 145/188/135
f 152/190/133 145/188/135 116/189/136
f 117/191/137 152/190/133 116/189/136
f 118/192/138 152/190/133 117/191/137
f 119/193/139 152/190/133 118/192/138
f 152/190/133 119/193/139 120/194/134
f 123/197/140 133/208/141 122/196/142 124/198/143
f 125/199/144 123/197/140 124/198/143 126/200/145
f 127/201/146 125/199/144 126/200/145 128/202/147
f 129/203/148 127/201/146 128/202/147 130/204/149
f 131/205/150 129/203/148 130/204/149 132/206/151
f 133/207/141 131/205/150 132/206/151 122/195/142
f 141/177/130 121/179/118 133/208/141 123/197/140
f 140/174/127 141/177/130 123/197/140 125/199/144
f 139/171/124 140/174/127 125/199/144 127/201/146
f 138/168/121 139/171/124 127/201/146 129/203/148
f 137/165/117 138/168/121 129/203/148 131/205/150
f 121/161/118 137/165/117 131/205/150 133/207/141
f 124/198/143 122/196/142 134/211/152 153/213/153
f 153/213/153 134/211/152 120/212/134 119/214/139
f 126/200/145 124/198/143 153/213/153 154/215/154
f 154/215/154 153/213/153 119/214/139 118/216/138
f 128/202/147 126/200/145 154/215/154 155/217/155
f 155/217/155 154/215/154 118/216/138 117/218/137
f 130/204/149 128/202/147 155/217/155 156/219/156
f 156/219/156 155/217/155 117/218/137 116/220/136
f 132/206/151 130/204/149 156/219/156 157/221/157
f 157/221/157 156/219/156 116/220/136 145/222/135
f 122/195/142 132/206/151 157/221/157 134/209/152
f 134/209/152 157/221/157 145/222/135 120/210/134
