# This file uses centimeters as units for non-parametric coordinates.

mtllib s.mtl
g default
v 4.554178 0.035194 -0.499407
v 4.559343 0.035194 0.500505
v 4.559343 -0.017671 0.500505
v 4.616619 -0.032248 0.500197
v 4.622667 -0.002492 -0.002042
v 4.643365 -0.043116 -0.002153
v 4.615947 -0.087853 -0.002006
v 4.585298 -0.092707 -0.001841
v 4.621188 0.040739 -0.277339
v 4.641886 0.000115 -0.277450
v 4.614468 -0.044622 -0.277303
v 4.583819 -0.049476 -0.277138
v 4.624194 0.040739 0.282244
v 4.644892 0.000115 0.282133
v 4.617474 -0.044622 0.282280
v 4.586825 -0.049476 0.282445
v 4.640694 0.008761 0.500068
v 4.595724 0.053731 0.500309
v 4.581828 0.051530 0.500384
v 4.577636 0.004640 -0.001800
v 4.579163 0.047871 0.282486
v 4.623454 0.014800 0.144436
v 4.644152 -0.025824 0.144324
v 4.616734 -0.070561 0.144472
v 4.586085 -0.075415 0.144636
v 4.552529 -0.013601 -0.001665
v 4.554057 0.029630 0.282621
v 4.621905 0.014800 -0.143896
v 4.642603 -0.025824 -0.144007
v 4.615185 -0.070561 -0.143860
v 4.584536 -0.075415 -0.143695
v 4.624816 0.049385 0.398092
v 4.645515 0.008761 0.397981
v 4.618096 -0.035976 0.398128
v 4.587447 -0.040830 0.398293
v 4.576157 0.047871 -0.277097
v 4.551051 0.029630 -0.276962
v 4.583359 -0.036697 -0.499563
v 4.583168 -0.040830 -0.398386
v 4.611453 -0.032248 -0.499714
v 4.613817 -0.035976 -0.398550
v 4.635528 0.008761 -0.499844
v 4.641235 0.008761 -0.398698
v 4.591022 0.058975 -0.398428
v 4.576662 0.051530 -0.499527
v 4.554178 -0.017671 -0.499407
v 4.590558 0.053731 -0.499602
v 4.588524 -0.036697 0.500348
v 4.575506 0.056517 -0.398345
v 4.550399 0.038276 -0.398210
v 4.578423 0.021932 0.144677
v 4.553316 0.003691 0.144812
v 4.576874 0.021932 -0.143654
v 4.551767 0.003691 -0.143519
v 4.579785 0.056517 0.398334
v 4.554679 0.038276 0.398469
v 5.091689 -0.036697 -0.499993
v 5.067662 0.035194 0.501145
v 5.061275 -0.005135 0.501180
v 5.096843 -0.036697 0.500988
v 5.124938 -0.032248 0.500838
v 5.119783 -0.032248 -0.500144
v 5.130946 0.002759 -0.017433
v 5.124226 -0.082602 -0.017397
v 5.132367 0.041614 0.247076
v 5.125647 -0.043747 0.247112
v 5.129429 0.041614 -0.299878
v 5.122709 -0.043747 -0.299842
v 5.149012 0.008761 0.500708
v 5.130475 0.045143 0.500808
v 5.104043 0.053731 0.500950
v 5.101432 0.012349 -0.017274
v 5.102853 0.051204 0.247235
v 5.131672 0.018301 0.117755
v 5.124952 -0.067060 0.117791
v 5.093577 -0.087456 -0.017232
v 5.094998 -0.048601 0.247277
v 5.053677 -0.053382 -0.017018
v 5.055097 -0.014527 0.247491
v 5.085915 0.009891 -0.017191
v 5.062230 0.030505 0.247453
v 5.133050 0.049385 0.374201
v 5.126330 -0.035976 0.374238
v 5.130169 0.018301 -0.162157
v 5.123449 -0.067060 -0.162121
v 5.084398 0.048746 -0.299636
v 5.052159 -0.014527 -0.299463
v 5.092060 -0.048601 -0.299677
v 5.122096 -0.035976 -0.414021
v 5.125321 0.045143 -0.500174
v 5.128816 0.049385 -0.414057
v 5.098889 0.053731 -0.500032
v 5.099915 0.051204 -0.299719
v 5.062508 0.035194 -0.499836
v 5.056120 -0.005135 -0.499802
v 5.141657 -0.005135 -0.500262
v 5.058678 0.038276 -0.413681
v 5.051546 -0.006755 -0.413642
v 5.091447 -0.040830 -0.413857
v 5.099301 0.058975 -0.413899
v 5.102158 0.027891 0.117913
v 5.094303 -0.071914 0.117955
v 5.054403 -0.037840 0.118170
v 5.086641 0.025433 0.117997
v 5.103535 0.058975 0.374360
v 5.095681 -0.040830 0.374402
v 5.055780 -0.006755 0.374616
v 5.062912 0.038276 0.374578
v 5.100654 0.027891 -0.161998
v 5.092800 -0.071914 -0.161956
v 5.052899 -0.037840 -0.161742
v 5.085138 0.025433 -0.161915
v 5.307842 0.050987 0.017326
v 5.307700 0.059575 -0.009106
v 5.307480 -0.006290 -0.050115
v 4.307551 0.050709 0.022617
v 4.307409 0.059297 -0.003816
v 4.307189 -0.006568 -0.044824
v 4.307297 -0.026682 -0.024711
v 4.307483 -0.028442 0.010081
v 5.092953 -0.006415 0.007603
v 4.583462 -0.008085 0.010339
v 4.825799 -0.039479 -0.029274
v 4.583257 -0.005066 -0.027972
v 4.825681 -0.017537 -0.051217
v 4.583139 0.016877 -0.049914
v 4.825922 0.055471 -0.006480
v 4.583379 0.089885 -0.005177
v 4.826080 0.045881 0.023034
v 4.583538 0.080295 0.024337
v 4.826178 -0.010259 0.041275
v 4.583636 0.024154 0.042578
v 4.826005 -0.042498 0.009036
v 4.450917 -0.016731 0.011051
v 5.214201 -0.015618 0.006951
v 5.307930 0.000709 0.033662
v 5.093127 0.025824 0.039841
v 5.093029 0.081965 0.021600
v 5.092870 0.091555 -0.007914
v 5.092630 0.018546 -0.052650
v 5.092747 -0.003396 -0.030708
v 5.307793 0.032416 0.008080
v 5.307588 -0.026403 -0.030001
v 5.307775 -0.028163 0.004790
v 4.307639 0.000431 0.038953
v 5.214374 0.016621 0.039190
v 5.214276 0.072762 0.020949
v 5.214117 0.082352 -0.008565
v 5.213877 0.009344 -0.053302
v 5.213995 -0.012599 -0.031360
v 5.307850 0.017797 0.018702
v 4.307281 -0.014908 -0.027484
v 4.450711 -0.013712 -0.027260
v 4.450594 0.008230 -0.049202
v 4.450834 0.081239 -0.004465
v 4.450992 0.071649 0.025049
v 4.451090 0.015508 0.043290
vt 0.375000 0.312500
vt 0.400000 0.312500
vt 0.591842 0.029841
vt 0.450000 0.312500
vt 0.375000 0.688440
vt 0.591841 0.970159
vt 0.400000 0.688440
vt 0.408159 0.970159
vt 0.450000 0.688440
vt 0.362494 0.773687
vt 0.506250 0.688440
vt 0.625000 0.500852
vt 0.587500 0.501707
vt 0.550000 0.501707
vt 0.506250 0.501707
vt 0.481250 0.501707
vt 0.625000 0.397657
vt 0.587500 0.399912
vt 0.550000 0.399912
vt 0.506250 0.399912
vt 0.481250 0.399912
vt 0.625000 0.610887
vt 0.587500 0.606827
vt 0.550000 0.606827
vt 0.506250 0.606827
vt 0.481250 0.606827
vt 0.375000 0.355078
vt 0.400000 0.355078
vt 0.375000 0.555870
vt 0.400000 0.555870
vt 0.375000 0.449255
vt 0.400000 0.449255
vt 0.375000 0.649664
vt 0.400000 0.649664
vt 0.375000 0.397657
vt 0.625000 0.355078
vt 0.400000 0.399912
vt 0.481250 0.312500
vt 0.347574 0.132108
vt 0.481250 0.355078
vt 0.506250 0.312500
vt 0.362494 0.226313
vt 0.506250 0.355078
vt 0.550000 0.312500
vt 0.500000 0.312500
vt 0.550000 0.355078
vt 0.612500 0.312500
vt 0.612500 0.355078
vt 0.625000 0.312500
vt 0.648603 0.107966
vt 0.408159 0.029841
vt 0.656250 0.156250
vt 0.347574 0.867892
vt 0.481250 0.688440
vt 0.500000 0.687500
vt 0.550000 0.688440
vt 0.656250 0.843750
vt 0.612500 0.688440
vt 0.648603 0.892034
vt 0.625000 0.688440
vt 0.375000 0.500852
vt 0.375000 0.610887
vt 0.625000 0.555870
vt 0.587500 0.555870
vt 0.550000 0.555870
vt 0.506250 0.555870
vt 0.481250 0.555870
vt 0.400000 0.501707
vt 0.400000 0.606827
vt 0.625000 0.449255
vt 0.587500 0.449255
vt 0.550000 0.449255
vt 0.506250 0.449255
vt 0.481250 0.449255
vt 0.625000 0.649664
vt 0.587500 0.649664
vt 0.550000 0.649664
vt 0.506250 0.649664
vt 0.481250 0.649664
vt 0.400000 0.312500
vt 0.400000 0.350367
vt 0.437500 0.312500
vt 0.375000 0.388235
vt 0.437500 0.350367
vt 0.481250 0.312500
vt 0.437500 0.392497
vt 0.481250 0.350367
vt 0.506250 0.312500
vt 0.481250 0.392497
vt 0.537500 0.312500
vt 0.506250 0.350367
vt 0.506250 0.392497
vt 0.587500 0.312500
vt 0.587500 0.350367
vt 0.587500 0.392497
vt 0.612500 0.312500
vt 0.612500 0.350367
vt 0.625000 0.312500
vt 0.625000 0.350367
vt 0.625000 0.388235
vt 0.612500 0.392497
vt 0.591842 0.029841
vt 0.362494 0.226313
vt 0.451716 0.007647
vt 0.347574 0.132108
vt 0.451716 0.304853
vt 0.626409 0.248091
vt 0.656250 0.156250
vt 0.591841 0.970159
vt 0.451716 0.992353
vt 0.347574 0.867892
vt 0.362494 0.773687
vt 0.500000 0.687500
vt 0.626409 0.751908
vt 0.656250 0.843750
vt 0.612500 0.496487
vt 0.612500 0.546655
vt 0.625000 0.498071
vt 0.625000 0.546655
vt 0.625000 0.595239
vt 0.612500 0.594743
vt 0.587500 0.496487
vt 0.587500 0.546655
vt 0.587500 0.594743
vt 0.506250 0.496487
vt 0.506250 0.546655
vt 0.506250 0.594743
vt 0.481250 0.496487
vt 0.481250 0.546655
vt 0.481250 0.594743
vt 0.437500 0.496487
vt 0.437500 0.546655
vt 0.437500 0.594743
vt 0.375000 0.498071
vt 0.375000 0.546655
vt 0.400000 0.594743
vt 0.400000 0.688440
vt 0.612500 0.641839
vt 0.625000 0.641839
vt 0.625000 0.688440
vt 0.587500 0.641839
vt 0.612500 0.688440
vt 0.587500 0.688440
vt 0.506250 0.641839
vt 0.550000 0.688440
vt 0.506250 0.688440
vt 0.481250 0.641839
vt 0.481250 0.688440
vt 0.437500 0.641839
vt 0.437500 0.688440
vt 0.400000 0.641839
vt 0.612500 0.443153
vt 0.625000 0.443153
vt 0.587500 0.443153
vt 0.506250 0.443153
vt 0.481250 0.443153
vt 0.437500 0.443153
vt 0.375000 0.443153
vt 0.375000 0.312500
vt 0.375000 0.355078
vt 0.375000 0.397657
vt 0.412500 0.312500
vt 0.412500 0.355078
vt 0.462500 0.312500
vt 0.412500 0.399912
vt 0.462500 0.355078
vt 0.487500 0.312500
vt 0.462500 0.399912
vt 0.487500 0.355078
vt 0.568750 0.312500
vt 0.487500 0.399912
vt 0.568750 0.355078
vt 0.593750 0.312500
vt 0.568750 0.399912
vt 0.593750 0.355078
vt 0.625000 0.312500
vt 0.593750 0.399912
vt 0.625000 0.355078
vt 0.625000 0.397657
vt 0.548284 0.007647
vt 0.472228 0.068173
vt 0.373591 0.064409
vt 0.427293 0.100821
vt 0.343750 0.156250
vt 0.637506 0.226313
vt 0.570063 0.293756
vt 0.648603 0.107966
vt 0.548284 0.992353
vt 0.373591 0.935591
vt 0.572750 0.768916
vt 0.343750 0.843750
vt 0.570063 0.706244
vt 0.637506 0.773687
vt 0.648603 0.892034
vt 0.375000 0.610887
vt 0.625000 0.610887
vt 0.593750 0.501707
vt 0.593750 0.606827
vt 0.568750 0.501707
vt 0.568750 0.606827
vt 0.487500 0.501707
vt 0.487500 0.606827
vt 0.462500 0.501707
vt 0.462500 0.606827
vt 0.412500 0.501707
vt 0.412500 0.606827
vt 0.375000 0.500852
vt 0.625000 0.500852
vt 0.375000 0.649664
vt 0.375000 0.688440
vt 0.625000 0.649664
vt 0.625000 0.688440
vt 0.593750 0.649664
vt 0.593750 0.688440
vt 0.568750 0.649664
vt 0.568750 0.688440
vt 0.487500 0.649664
vt 0.487500 0.688440
vt 0.462500 0.649664
vt 0.462500 0.688440
vt 0.412500 0.649664
vt 0.412500 0.688440
vn -0.443084 0.866222 -0.230947
vn -0.995692 0.086302 -0.033895
vn -0.999635 0.004552 0.026634
vn -0.341949 0.939095 0.034221
vn -0.998158 -0.060663 -0.000438
vn -0.201889 0.968644 0.144809
vn -0.931100 -0.338535 -0.135819
vn -0.758461 -0.651695 -0.005545
vn -0.763364 -0.640400 -0.084638
vn -0.109729 -0.982315 -0.151711
vn 0.630404 -0.730622 -0.262264
vn 0.653533 -0.755075 -0.052498
vn 0.652084 -0.750608 -0.106647
vn 0.931908 0.227777 -0.282250
vn 0.984653 0.167786 -0.048037
vn 0.999435 0.020496 -0.026637
vn 0.560217 0.769211 -0.307363
vn 0.557862 0.829910 -0.006275
vn 0.595945 0.798894 0.081353
vn -0.990570 0.085672 0.106913
vn -0.098918 -0.908444 0.406134
vn -0.258714 0.930329 0.259914
vn -0.938607 -0.341823 0.046624
vn 0.647886 -0.748981 0.138825
vn 0.942967 0.079988 0.323133
vn 0.510427 0.807316 0.296150
vn -0.162690 0.986677 0.000917
vn -0.994145 -0.107922 0.005277
vn -0.996092 -0.086031 0.019973
vn -0.157033 0.976342 -0.148646
vn -0.998099 -0.060561 0.011403
vn -0.152159 0.979595 -0.131308
vn 0.603609 0.797274 -0.003223
vn 0.586712 0.800046 -0.125283
vn 0.574308 0.810807 -0.112972
vn 0.993354 -0.114969 -0.005406
vn 0.996113 -0.087556 0.009614
vn 0.998327 -0.057812 0.000234
vn 0.636462 -0.771300 -0.003382
vn 0.642689 -0.758044 0.110996
vn 0.653210 -0.750553 0.099933
vn -0.749358 -0.662153 0.004081
vn -0.753659 -0.649370 0.101570
vn -0.762425 -0.640356 0.093020
vn -0.996224 -0.086259 -0.009835
vn -0.155332 0.975607 0.155123
vn 0.587876 0.799561 0.122900
vn 0.995916 -0.087833 -0.020901
vn 0.641067 -0.757797 -0.121563
vn -0.754407 -0.649261 -0.096595
vn -0.999824 0.007235 -0.017312
vn -0.200199 0.979325 -0.029025
vn 0.603129 0.797586 0.009607
vn 0.998994 0.009166 0.043891
vn 0.654279 -0.754784 0.047116
vn -0.758296 -0.651773 0.013371
vn -0.754495 0.546860 -0.362879
vn -0.888847 -0.364682 -0.277412
vn -0.962270 -0.272068 0.004053
vn -0.823588 0.566427 0.029383
vn -0.993161 -0.115591 0.016425
vn -0.785398 0.611727 0.094554
vn -0.383715 -0.908604 -0.164929
vn -0.386023 -0.920797 -0.055850
vn -0.384386 -0.916295 -0.112477
vn 0.371062 -0.825083 -0.426089
vn 0.921982 -0.387232 -0.000754
vn 0.927064 -0.371434 -0.050886
vn 0.998191 -0.028941 -0.052698
vn 0.913705 0.386586 -0.125276
vn 0.950835 0.308048 0.031939
vn 0.968663 0.247024 0.025906
vn -0.146713 0.907277 -0.394112
vn -0.090746 0.995874 -0.000512
vn 0.057213 0.992681 0.106352
vn 0.563462 0.766130 0.309120
vn -0.792575 0.576331 0.199167
vn -0.893826 -0.367521 0.256912
vn -0.372699 -0.888042 0.269216
vn 0.832599 -0.548062 0.080040
vn 0.992699 -0.116537 0.031113
vn -0.155937 0.981538 0.110753
vn 0.157540 0.987512 -0.000912
vn -0.814595 0.580014 0.004294
vn -0.793108 0.600499 -0.101884
vn 0.049949 0.988607 -0.141989
vn -0.815829 0.572255 -0.083346
vn -0.102511 0.989131 -0.105409
vn 0.977597 0.210423 -0.005211
vn 0.973119 0.227126 -0.038106
vn 0.968416 0.246746 -0.035866
vn 0.914690 -0.404125 -0.004919
vn 0.920448 -0.387403 0.051903
vn 0.927502 -0.371656 0.040153
vn -0.375599 -0.926780 0.001908
vn -0.376754 -0.916362 0.135413
vn -0.383166 -0.916502 0.114925
vn -0.992720 -0.120318 0.005483
vn -0.988430 -0.151113 0.013114
vn -0.960971 -0.276541 0.007792
vn -0.804548 0.593866 0.005023
vn -0.155385 0.987800 -0.010343
vn 0.967198 0.251765 -0.033808
vn 0.890705 -0.454263 -0.017040
vn -0.385432 -0.921500 0.047737
vn -0.927412 -0.372420 0.034780
vn -0.807313 0.583894 0.085522
vn 0.155991 0.978565 0.134454
vn 0.973438 0.227512 0.025638
vn 0.920180 -0.387152 -0.058148
vn -0.378661 -0.917316 -0.123074
vn -0.996043 -0.088481 -0.008340
vn -0.001081 -0.928656 0.370940
vn 0.126086 -0.211679 0.969172
vn 0.013092 -0.146212 0.989167
vn -0.088879 -0.918163 0.386105
vn 0.012957 -0.120843 0.992587
vn 0.066219 -0.918018 0.390970
vn 0.322139 0.532113 0.782995
vn 0.097622 0.590937 0.800789
vn -0.037423 0.604743 0.795541
vn 0.309670 0.710589 -0.631797
vn 0.103039 0.759971 -0.641738
vn -0.055667 0.766792 -0.639477
vn 0.210690 0.183304 -0.960213
vn 0.042276 0.241224 -0.969548
vn -0.024235 0.262329 -0.964674
vn 0.114670 -0.926409 -0.358634
vn -0.095498 -0.919565 -0.381156
vn 0.061777 -0.917973 -0.391801
vn 0.999986 -0.000002 -0.005364
vn 0.999986 0.000004 -0.005376
vn -0.999986 -0.000001 0.005367
vn -0.021162 -0.925960 0.377028
vn -0.168905 -0.188964 0.967349
vn -0.256081 0.551010 0.794236
vn -0.196033 0.738494 -0.645134
vn -0.107116 0.204995 -0.972884
vn 0.044601 -0.929302 -0.366619
vn 0.001108 -0.928679 -0.370882
vn 0.005136 -0.928798 0.370551
vn -0.061712 -0.918100 0.391515
vn -0.065596 -0.918061 -0.390974
vn -0.006076 0.195393 -0.980706
vn 0.014007 0.261876 -0.965000
vn -0.005873 0.752490 -0.658578
vn 0.048064 0.766694 -0.640211
vn 0.002584 0.568550 0.822645
vn 0.045555 0.604458 0.795334
vn 0.005786 -0.200162 0.979746
vn -0.002006 -0.121416 0.992600
vn 0.068297 -0.920050 0.385801
vn 0.066493 -0.921968 -0.381514
vn -0.039612 0.239684 -0.970042
vn -0.084439 0.761141 -0.643066
vn -0.066641 0.590714 0.804124
vn -0.000594 -0.148564 0.988903
s 1
g pCylinder5
usemtl initialShadingGroup
f 45/1/1 1/2/2 50/28/3 49/27/4
f 49/27/4 50/28/3 37/37/5 36/35/6
f 1/2/2 46/4/7 39/40/8 50/28/3
f 50/28/3 39/40/8 12/21/9 37/37/5
f 46/4/7 38/38/10 39/40/8
f 38/38/10 40/41/11 41/43/12 39/40/8
f 39/40/8 41/43/12 11/20/13 12/21/9
f 40/41/11 42/44/14 43/46/15 41/43/12
f 41/43/12 43/46/15 10/19/16 11/20/13
f 42/44/14 47/47/17 44/48/18 43/46/15
f 43/46/15 44/48/18 9/18/19 10/19/16
f 47/47/17 45/49/1 49/36/4 44/48/18
f 44/48/18 49/36/4 36/17/6 9/18/19
f 1/3/2 45/50/1 46/51/7
f 38/39/10 46/51/7 40/42/11
f 40/42/11 46/51/7 42/45/14
f 46/51/7 47/52/17 42/45/14
f 46/51/7 45/50/1 47/52/17
f 2/6/20 48/53/21 19/59/22
f 3/8/23 48/53/21 2/6/20
f 4/10/24 17/55/25 48/53/21
f 48/53/21 17/55/25 18/57/26
f 48/53/21 18/57/26 19/59/22
f 20/61/27 26/68/28 52/30/29 51/29/30
f 51/29/30 52/30/29 27/69/31 21/62/32
f 5/13/33 20/12/27 51/63/30 22/64/34
f 22/64/34 51/63/30 21/22/32 13/23/35
f 6/14/36 5/13/33 22/64/34 23/65/37
f 23/65/37 22/64/34 13/23/35 14/24/38
f 7/15/39 6/14/36 23/65/37 24/66/40
f 24/66/40 23/65/37 14/24/38 15/25/41
f 8/16/42 7/15/39 24/66/40 25/67/43
f 25/67/43 24/66/40 15/25/41 16/26/44
f 26/68/28 8/16/42 25/67/43 52/30/29
f 52/30/29 25/67/43 16/26/44 27/69/31
f 36/35/6 37/37/5 54/32/45 53/31/46
f 53/31/46 54/32/45 26/68/28 20/61/27
f 9/18/19 36/17/6 53/70/46 28/71/47
f 28/71/47 53/70/46 20/12/27 5/13/33
f 10/19/16 9/18/19 28/71/47 29/72/48
f 29/72/48 28/71/47 5/13/33 6/14/36
f 11/20/13 10/19/16 29/72/48 30/73/49
f 30/73/49 29/72/48 6/14/36 7/15/39
f 12/21/9 11/20/13 30/73/49 31/74/50
f 31/74/50 30/73/49 7/15/39 8/16/42
f 37/37/5 12/21/9 31/74/50 54/32/45
f 54/32/45 31/74/50 8/16/42 26/68/28
f 21/62/32 27/69/31 56/34/51 55/33/52
f 55/33/52 56/34/51 2/7/20 19/5/22
f 13/23/35 21/22/32 55/75/52 32/76/53
f 32/76/53 55/75/52 19/60/22 18/58/26
f 14/24/38 13/23/35 32/76/53 33/77/54
f 33/77/54 32/76/53 18/58/26 17/56/25
f 15/25/41 14/24/38 33/77/54 34/78/55
f 34/78/55 33/77/54 17/56/25 4/11/24
f 16/26/44 15/25/41 34/78/55 35/79/56
f 35/79/56 34/78/55 4/11/24 48/54/21
f 35/79/56 48/54/21 3/9/23
f 27/69/31 16/26/44 35/79/56 56/34/51
f 56/34/51 35/79/56 3/9/23 2/7/20
s 5
f 94/80/57 95/82/58 98/84/59 97/81/60
f 97/81/60 98/84/59 87/86/61 86/83/62
f 95/82/58 57/85/63 99/87/64 98/84/59
f 98/84/59 99/87/64 88/89/65 87/86/61
f 57/85/63 62/88/66 89/91/67 99/87/64
f 99/87/64 89/91/67 68/92/68 88/89/65
f 62/88/66 96/90/69 89/91/67
f 96/90/69 90/93/70 91/94/71 89/91/67
f 89/91/67 91/94/71 67/95/72 68/92/68
f 90/93/70 92/96/73 100/97/74 91/94/71
f 91/94/71 100/97/74 93/101/75 67/95/72
f 92/96/73 94/98/57 97/99/60 100/97/74
f 100/97/74 97/99/60 86/100/62 93/101/75
f 62/103/66 95/104/58 94/102/57
f 57/105/63 95/104/58 62/103/66
f 96/106/69 62/103/66 90/107/70
f 90/107/70 62/103/66 92/108/73
f 62/103/66 94/102/57 92/108/73
f 70/114/76 58/109/77 59/110/78
f 60/111/79 70/114/76 59/110/78
f 61/112/80 70/114/76 60/111/79
f 61/112/80 69/113/81 70/114/76
f 70/114/76 71/115/82 58/109/77
f 72/116/83 80/118/84 104/119/85 101/117/86
f 101/117/86 104/119/85 81/120/87 73/121/88
f 63/122/89 72/116/83 101/117/86 74/123/90
f 74/123/90 101/117/86 73/121/88 65/124/91
f 64/125/92 63/122/89 74/123/90 75/126/93
f 75/126/93 74/123/90 65/124/91 66/127/94
f 76/128/95 64/125/92 75/126/93 102/129/96
f 102/129/96 75/126/93 66/127/94 77/130/97
f 78/131/98 76/128/95 102/129/96 103/132/99
f 103/132/99 102/129/96 77/130/97 79/133/100
f 80/134/84 78/131/98 103/132/99 104/135/85
f 104/135/85 103/132/99 79/133/100 81/136/87
f 73/121/88 81/120/87 108/139/101 105/138/102
f 105/138/102 108/139/101 58/140/77 71/142/82
f 65/124/91 73/121/88 105/138/102 82/141/103
f 82/141/103 105/138/102 71/142/82 70/143/76
f 82/141/103 70/143/76 69/145/81
f 66/127/94 65/124/91 82/141/103 83/144/104
f 83/144/104 82/141/103 69/145/81 61/146/80
f 77/130/97 66/127/94 83/144/104 106/147/105
f 106/147/105 83/144/104 61/146/80 60/148/79
f 79/133/100 77/130/97 106/147/105 107/149/106
f 107/149/106 106/147/105 60/148/79 59/150/78
f 81/136/87 79/133/100 107/149/106 108/151/101
f 108/151/101 107/149/106 59/150/78 58/137/77
f 93/101/75 86/100/62 112/153/107 109/152/108
f 109/152/108 112/153/107 80/118/84 72/116/83
f 67/95/72 93/101/75 109/152/108 84/154/109
f 84/154/109 109/152/108 72/116/83 63/122/89
f 68/92/68 67/95/72 84/154/109 85/155/110
f 85/155/110 84/154/109 63/122/89 64/125/92
f 88/89/65 68/92/68 85/155/110 110/156/111
f 110/156/111 85/155/110 64/125/92 76/128/95
f 87/86/61 88/89/65 110/156/111 111/157/112
f 111/157/112 110/156/111 76/128/95 78/131/98
f 86/83/62 87/86/61 111/157/112 112/158/107
f 112/158/107 111/157/112 78/131/98 80/134/84
s 8
f 144/159/113 136/162/114 146/163/115 135/160/116
f 135/160/116 146/163/115 137/165/117 121/161/118
f 136/162/114 113/164/119 147/166/120 146/163/115
f 146/163/115 147/166/120 138/168/121 137/165/117
f 113/164/119 114/167/122 148/169/123 147/166/120
f 147/166/120 148/169/123 139/171/124 138/168/121
f 114/167/122 115/170/125 149/172/126 148/169/123
f 148/169/123 149/172/126 140/174/127 139/171/124
f 115/170/125 143/173/128 150/175/129 149/172/126
f 149/172/126 150/175/129 141/177/130 140/174/127
f 143/173/128 144/176/113 135/178/116 150/175/129
f 150/175/129 135/178/116 121/179/118 141/177/130
f 143/185/128 136/180/114 144/187/113
f 136/180/114 143/185/128 151/181/131
f 113/182/119 136/180/114 151/181/131 142/183/132
f 143/185/128 142/183/132 151/181/131
f 114/184/122 113/182/119 142/183/132 143/185/128
f 115/186/125 114/184/122 143/185/128
f 152/190/133 120/194/134 145/188/135
f 152/190/133 145/188/135 116/189/136
f 117/191/137 152/190/133 116/189/136
f 118/192/138 152/190/133 117/191/137
f 119/193/139 152/190/133 118/192/138
f 152/190/133 119/193/139 120/194/134
f 123/197/140 133/208/141 122/196/142 124/198/143
f 125/199/144 123/197/140 124/198/143 126/200/145
f 127/201/146 125/199/144 126/200/145 128/202/147
f 129/203/148 127/201/146 128/202/147 130/204/149
f 131/205/150 129/203/148 130/204/149 132/206/151
f 133/207/141 131/205/150 132/206/151 122/195/142
f 141/177/130 121/179/118 133/208/141 123/197/140
f 140/174/127 141/177/130 123/197/140 125/199/144
f 139/171/124 140/174/127 125/199/144 127/201/146
f 138/168/121 139/171/124 127/201/146 129/203/148
f 137/165/117 138/168/121 129/203/148 131/205/150
f 121/161/118 137/165/117 131/205/150 133/207/141
f 124/198/143 122/196/142 134/211/152 153/213/153
f 153/213/153 134/211/152 120/212/134 119/214/139
f 126/200/145 124/198/143 153/213/153 154/215/154
f 154/215/154 153/213/153 119/214/139 118/216/138
f 128/202/147 126/200/145 154/215/154 155/217/155
f 155/217/155 154/215/154 118/216/138 117/218/137
f 130/204/149 128/202/147 155/217/155 156/219/156
f 156/219/156 155/217/155 117/218/137 116/220/136
f 132/206/151 130/204/149 156/219/156 157/221/157
f 157/221/157 156/219/156 116/220/136 145/222/135
f 122/195/142 132/206/151 157/221/157 134/209/152
f 134/209/152 157/221/157 145/222/135 120/210/134
